{
  "accessors": [
    {
      "bufferView": 2,
      "componentType": 5126,
      "count": 7640,
      "max": [
        4.1824951171875,
        3.861224889755249,
        8.828434944152832
      ],
      "min": [
        -4.1824951171875,
        -3.8612239360809326,
        -0.04925199970602989
      ],
      "type": "VEC3"
    },
    {
      "bufferView": 2,
      "byteOffset": 91680,
      "componentType": 5126,
      "count": 7640,
      "max": [
        1.0,
        0.9999960660934448,
        1.0
      ],
      "min": [
        -1.0,
        -0.9999960660934448,
        -1.0
      ],
      "type": "VEC3"
    },
    {
      "bufferView": 1,
      "componentType": 5126,
      "count": 7640,
      "max": [
        0.9996839761734009,
        0.9996910095214844
      ],
      "min": [
        0.00031599999056197703,
        0.00030899999546818435
      ],
      "type": "VEC2"
    },
    {
      "bufferView": 0,
      "componentType": 5125,
      "count": 15432,
      "type": "SCALAR"
    },
    {
      "bufferView": 2,
      "byteOffset": 183360,
      "componentType": 5126,
      "count": 50,
      "max": [
        5.204736232757568,
        5.204736232757568,
        9.310087203979492
      ],
      "min": [
        -5.204736232757568,
        -5.204736232757568,
        8.91854190826416
      ],
      "type": "VEC3"
    },
    {
      "bufferView": 2,
      "byteOffset": 183960,
      "componentType": 5126,
      "count": 50,
      "max": [
        1.0,
        1.0,
        1.0
      ],
      "min": [
        -1.0,
        -1.0,
        -1.0
      ],
      "type": "VEC3"
    },
    {
      "bufferView": 3,
      "componentType": 5126,
      "count": 50,
      "max": [
        0.8390396237373352,
        0.847627580165863,
        0.9972332715988159,
        1.0
      ],
      "min": [
        -0.2390415370464325,
        -0.2828085422515869,
        -0.9972332715988159,
        1.0
      ],
      "type": "VEC4"
    },
    {
      "bufferView": 1,
      "byteOffset": 61120,
      "componentType": 5126,
      "count": 50,
      "max": [
        0.975953996181488,
        0.9821699857711792
      ],
      "min": [
        0.02149300090968609,
        0.011970999650657177
      ],
      "type": "VEC2"
    },
    {
      "bufferView": 0,
      "byteOffset": 61728,
      "componentType": 5125,
      "count": 96,
      "type": "SCALAR"
    }
  ],
  "asset": {
    "extras": {
      "author": "Asia Matusik (https://sketchfab.com/asiam)",
      "license": "CC-BY-4.0 (http://creativecommons.org/licenses/by/4.0/)",
      "source": "https://sketchfab.com/3d-models/a-table-54d34c17351d4afcbdfe440351dd7341",
      "title": "A Table"
    },
    "generator": "Sketchfab-12.66.0",
    "version": "2.0"
  },
  "bufferViews": [
    {
      "buffer": 0,
      "byteLength": 62112,
      "name": "floatBufferViews",
      "target": 34963
    },
    {
      "buffer": 0,
      "byteLength": 61520,
      "byteOffset": 62112,
      "byteStride": 8,
      "name": "floatBufferViews",
      "target": 34962
    },
    {
      "buffer": 0,
      "byteLength": 184560,
      "byteOffset": 123632,
      "byteStride": 12,
      "name": "floatBufferViews",
      "target": 34962
    },
    {
      "buffer": 0,
      "byteLength": 800,
      "byteOffset": 308192,
      "byteStride": 16,
      "name": "floatBufferViews",
      "target": 34962
    }
  ],
  "buffers": [
    {
      "byteLength": 308992,
      "uri": "scene.bin"
    }
  ],
  "images": [
    {
      "uri": "textures/mosiadz.001_baseColor.png"
    },
    {
      "uri": "textures/wood.001_baseColor.png"
    },
    {
      "uri": "textures/wood.001_metallicRoughness.png"
    },
    {
      "uri": "textures/wood.001_normal.png"
    }
  ],
  "materials": [
    {
      "doubleSided": true,
      "name": "mosiadz.001",
      "pbrMetallicRoughness": {
        "baseColorTexture": {
          "index": 0
        },
        "roughnessFactor": 0.43730945121951215
      }
    },
    {
      "doubleSided": true,
      "name": "wood.001",
      "normalTexture": {
        "index": 3,
        "scale": 0.12366615853658537
      },
      "occlusionTexture": {
        "index": 2
      },
      "pbrMetallicRoughness": {
        "baseColorTexture": {
          "index": 1
        },
        "metallicFactor": 0.0,
        "metallicRoughnessTexture": {
          "index": 2
        }
      }
    }
  ],
  "meshes": [
    {
      "name": "Object_0",
      "primitives": [
        {
          "attributes": {
            "NORMAL": 1,
            "POSITION": 0,
            "TEXCOORD_0": 2
          },
          "indices": 3,
          "material": 0,
          "mode": 4
        }
      ]
    },
    {
      "name": "Object_1",
      "primitives": [
        {
          "attributes": {
            "NORMAL": 5,
            "POSITION": 4,
            "TANGENT": 6,
            "TEXCOORD_0": 7
          },
          "indices": 8,
          "material": 1,
          "mode": 4
        }
      ]
    }
  ],
  "nodes": [
    {
      "children": [
        1
      ],
      "matrix": [
        1.0,
        0.0,
        0.0,
        0.0,
        0.0,
        2.220446049250313e-16,
        -1.0,
        0.0,
        0.0,
        1.0,
        2.220446049250313e-16,
        0.0,
        0.0,
        0.0,
        0.0,
        1.0
      ],
      "name": "Sketchfab_model"
    },
    {
      "children": [
        2,
        3
      ],
      "name": "d10273d303344f1ba3ba5e5f345fd00e.obj.cleaner.materialmerger.gles"
    },
    {
      "mesh": 0,
      "name": "Object_2"
    },
    {
      "mesh": 1,
      "name": "Object_3"
    }
  ],
  "samplers": [
    {
      "magFilter": 9729,
      "minFilter": 9987,
      "wrapS": 10497,
      "wrapT": 10497
    }
  ],
  "scene": 0,
  "scenes": [
    {
      "name": "Sketchfab_Scene",
      "nodes": [
        0
      ]
    }
  ],
  "textures": [
    {
      "sampler": 0,
      "source": 0
    },
    {
      "sampler": 0,
      "source": 1
    },
    {
      "sampler": 0,
      "source": 2
    },
    {
      "sampler": 0,
      "source": 3
    }
  ]
}
